<svg xmlns="http://www.w3.org/2000/svg" xmlns:xlink="http://www.w3.org/1999/xlink" id="Layer_1" width="323.992" height="323.992" x="0" y="0" enable-background="new 0 0 323.992 323.992" version="1.1" viewBox="0 0 323.992 323.992" xml:space="preserve"><switch><g><g><g><path fill="#FF9200" fill-rule="evenodd" d="M55.148,310.368c-2.8,0-5.601,0-8.401,0 c-2.101-7.288-3.787-14.991-5.93-22.237c-5.106,0-10.212,0-15.319,0c-2.657,6.732-4.13,14.648-5.93,22.237 c-2.8,0-5.601,0-8.401,0c3.312-13.63,7.949-32.103,11.86-47.439c1.675-6.567,3.729-24.786,13.836-18.283 c3.243,2.085,4.403,11.78,5.436,15.812C46.633,277.384,51.104,293.908,55.148,310.368z M26.98,280.225c3.954,0,7.907,0,11.86,0 c-1.966-9.894-3.935-19.784-5.93-29.649C31.178,260.703,29.116,270.501,26.98,280.225z" clip-rule="evenodd"/><path fill="#FF9200" fill-rule="evenodd" d="M147.062,309.874c-1.986,1.145-6.088,0.172-8.896,0.494 c-1.403-7.819-3.806-14.642-5.436-22.237c-5.106,0-10.212,0-15.318,0c-3.091,6.464-4.03,15.079-6.424,22.237 c-2.8,0-5.601,0-8.4,0c3.5-13.163,8.529-32.034,12.354-47.439c1.629-6.56,2.309-21.687,11.859-19.271 c4.375,1.106,5.99,11.288,6.918,14.824C138.336,276.074,142.159,293.374,147.062,309.874z M118.895,280.225 c3.788,0,7.577,0,11.365,0c-1.542-10.317-3.474-20.244-5.93-29.649C123.415,261.355,120.409,270.044,118.895,280.225z" clip-rule="evenodd"/><path fill="#FF9200" fill-rule="evenodd" d="M256.272,261.94c-2.636,0-5.272,0-7.907,0 c0.477-16.435-25.047-11.972-18.778,4.942c2.848,7.686,19.47,5.122,24.709,12.848c3.389,4.999,2.985,17.494,0.988,22.237 c-6.206,14.729-36.074,11.945-33.604-9.389c2.471,0,4.941,0,7.412,0c-1.029,11.676,15.654,13.878,19.272,4.941 c-0.436-4.769,0.798-8.744-0.494-11.86c-2.647-6.381-18.938-4.74-23.72-10.871c-3.292-4.221-3.87-15.371-1.977-21.249 C227.025,238.482,258.375,240.062,256.272,261.94z" clip-rule="evenodd"/><path fill="#FF9200" fill-rule="evenodd" d="M312.606,261.94c-2.636,0-5.271,0-7.907,0 c0.439-16.355-25.054-11.993-18.777,4.942c2.792,7.533,18.873,5.151,24.214,12.354c4.199,5.664,3.901,18.211,0.988,23.72 c-7.232,13.675-34.946,11.099-33.109-10.377c2.471,0,4.942,0,7.413,0c-1.033,11.725,15.619,13.807,19.271,4.941 c-0.434-4.769,0.798-8.744-0.494-11.86c-2.712-6.54-19.666-4.769-24.214-11.365c-2.701-3.918-3.1-13.833-1.977-19.272 C281.416,238.551,314.754,239.281,312.606,261.94z" clip-rule="evenodd"/><path fill="#FF9200" fill-rule="evenodd" d="M88.75,244.151c2.472,0,4.942,0,7.413,0 c0,10.62,0,22.405,0,33.603c0,11.324,1.184,22.921-1.482,32.12c-7.327,3.015-9.663-4.569-11.366-8.895 c-5.968-15.164-11.874-31.53-15.812-47.934c-1.979,3.349,0.593,7.279,0.988,11.366c1.337,13.812-0.643,31.432,0.494,45.956 c-2.636,0-5.271,0-7.906,0c0-16.365,0-32.707,0-50.898c0-7.017-2.084-17.922,7.412-15.318c4.052,1.11,5.336,10.337,6.424,13.342 c5.168,14.282,11.309,30.821,15.813,43.486c0,0.33,0,0.659,0,0.988c0.4,0.094,0.492,0.496,0.988,0.494 C86.53,287.223,89.549,263.778,88.75,244.151z" clip-rule="evenodd"/><path fill="#FF9200" fill-rule="evenodd" d="M159.91,244.151c0.235,19.366-0.529,39.731,0.494,58.311 c7.577,0,15.154,0,22.73,0c0,2.636,0,5.271,0,7.906c-7.001-2.331-24.512,3.711-29.648-1.482 c-3.617-3.655-1.482-24.37-1.482-31.132c0-12.15,0-23.397,0-32.12C152.049,242.551,157.501,244.872,159.91,244.151z" clip-rule="evenodd"/><path fill="#FF9200" fill-rule="evenodd" d="M179.182,244.151c2.636,0,5.272,0,7.906,0 c3.965,10.202,9.021,19.312,11.366,31.132c3.312-11.02,7.579-21.082,11.86-31.132c2.801,0,5.601,0,8.401,0 c-2.244,6.46-5.63,12.632-8.401,19.271c-2.565,6.147-6.882,13.227-7.906,19.767c-1.319,8.424,0.96,16.84,0,27.179 c-2.472,0-4.942,0-7.413,0c-0.893-10.304,1.223-18.88,0-27.179c-0.9-6.114-5.169-12.601-7.907-18.777 C184.047,257.55,181.336,250.697,179.182,244.151z" clip-rule="evenodd"/><path fill="#FF9200" fill-rule="evenodd" d="M271.097,244.151c0,22.073,0,44.146,0,66.217 c-2.636,0-5.271,0-7.906,0c0-21.578,0-43.156,0-64.734C263.236,242.551,268.688,244.872,271.097,244.151z" clip-rule="evenodd"/><path fill="#FFF" fill-rule="evenodd" d="M32.91,250.575c1.995,9.865,3.963,19.756,5.93,29.649 c-3.953,0-7.906,0-11.86,0C29.116,270.501,31.178,260.703,32.91,250.575z" clip-rule="evenodd"/><path fill="#FFF" fill-rule="evenodd" d="M124.33,250.575c2.456,9.405,4.388,19.332,5.93,29.649 c-3.788,0-7.577,0-11.365,0C120.409,270.044,123.415,261.355,124.33,250.575z" clip-rule="evenodd"/></g><g><path fill-rule="evenodd" d="M196.871,4.377c16.125-2.532,28.863,8.195,32.402,17.025 c2.619,6.533,2.024,17.713,4.942,24.165c4.538,10.029,14.321,17.069,24.714,18.124c8.544,0.867,17.59-5.199,29.658-2.197 c12.646,3.145,26.954,18.438,19.222,38.444c-3.577,9.256-13.131,17.066-25.263,17.575c-8.8,0.369-17.096-3.758-24.714-2.745 c-10.904,1.449-20.528,9.957-24.166,18.672c-3.12,7.479-1.881,16.349-4.943,23.616c-4.59,10.895-20.149,22.05-36.796,15.377 c-23.538-9.432-24.181-52.764,8.788-54.92c10.575-0.691,18.251,4.062,27.46,2.197c10.246-2.075,18.013-8.438,21.969-17.575 c9.202-21.252-5.834-43.579-27.462-44.485c-11.585-0.486-16.662,4.45-26.91,2.197c-18.485-4.064-28.312-30.042-14.829-46.133 C183.879,10.21,189.996,5.456,196.871,4.377z" clip-rule="evenodd"/><path fill="#FF9200" fill-rule="evenodd" d="M257.833,14.263c10.284-2.296,20.342,2.395,23.067,11.532 c3.818,12.819-5.843,28.687-23.067,25.264C238.92,47.301,240.071,18.228,257.833,14.263z" clip-rule="evenodd"/><path fill="gray" fill-rule="evenodd" d="M216.092,61.494c40.297-6.326,44.365,52.408,8.788,56.019 c-9.893,1.004-15.602-3.446-24.714-2.745c-19.402,1.49-34.727,21.479-26.362,42.837c3.351,8.557,13.29,19.684,28.558,19.77 c5.175,0.031,12.636-3.44,19.771-3.295c19.609,0.402,32.382,20.293,25.813,38.445c-8.514,23.529-44.127,23.917-53.272,1.098 c-3.523-8.788-2.147-18.121-4.942-24.164c-3.772-8.16-13.476-17.838-27.461-18.125c-6.241-0.126-13.264,4.397-24.713,2.746 c-15.806-2.279-28.822-21.928-20.871-40.092c2.604-5.949,10.319-15.157,22.518-16.476c10.659-1.153,17.409,3.441,25.262,2.746 c10.645-0.942,21.216-7.656,25.814-18.673c3.163-7.582,1.691-16.051,4.393-23.067C197.833,70.32,205.501,63.157,216.092,61.494z" clip-rule="evenodd"/><path fill="#FF9200" fill-rule="evenodd" d="M158.975,80.167c8.066-1.951,11.984,2.935,12.083,8.788 c0.201,11.975-19.431,14.067-19.222,0C151.903,84.392,153.982,81.375,158.975,80.167z" clip-rule="evenodd"/><path fill="#FF9200" fill-rule="evenodd" d="M259.48,132.341c9.943-2.045,17.664,4.087,17.572,13.73 c-0.143,15.43-23.192,19.647-28.008,4.943C246.315,142.679,249.491,134.396,259.48,132.341z" clip-rule="evenodd"/><path fill="#FF9200" fill-rule="evenodd" d="M157.877,177.925c17.861-2.438,35.586,14.73,26.912,35.149 c-4.228,9.952-18.843,19.279-33.502,13.182C128.838,216.919,132.346,181.41,157.877,177.925z" clip-rule="evenodd"/></g><g><path fill-rule="evenodd" d="M17.43,165.424c0.211-4.595,7.003-5.521,10.872-3.459 c5.129,11.178,7.529,25.086,10.872,38.051c0.83-6.129,2.509-12.721,4.941-21.25c2.479-8.69,6.486-26.651,16.309-14.33 c0,21.083,0,42.167,0,63.251c-2.471,0-4.942,0-7.413,0c0-14.166,0-28.332,0-42.496c0.108-6.316,1.438-11.41,2.471-16.802 c-3.079,1.696-3.087,6.506-3.953,9.882c-0.9,3.509-1.849,7.247-2.965,10.873c-1.72,5.576-3.45,18.174-9.389,18.283 c-6.062,0.111-7.866-12.672-9.389-17.789c-2.331-7.838-3.656-14.3-5.436-21.25c-0.583,2.405,0.191,7.707,0.494,10.871 c0,16.143,0,32.285,0,48.428c-2.471,0-4.942,0-7.413,0C17.43,206.934,17.43,186.18,17.43,165.424z" clip-rule="evenodd"/><path fill="gray" fill-rule="evenodd" d="M72.283,160.977c5.439-0.823,14.326-0.823,19.766,0 C85.459,160.977,78.872,160.977,72.283,160.977z" clip-rule="evenodd"/><path fill-rule="evenodd" d="M73.271,227.688c-7.492-2.105-4.941-18.309-4.941-32.119 c0-15.129-2.191-31.902,3.953-34.592c6.589,0,13.177,0,19.766,0c13.448,2.757,12.849,14.246,12.849,33.604 c0,17.926,1.098,31.217-13.837,33.107C85.13,227.688,79.201,227.688,73.271,227.688z M76.73,219.781 c7.922-0.148,17.612,1.469,19.767-4.447c0-0.494,0-0.988,0-1.482c0.822-11.861,0.822-27.178,0-39.039 c-0.644-3.31-2.62-5.286-5.931-5.93c0-0.165,0-0.33,0-0.494c-4.776,0-9.554,0-14.33,0 C76.565,185.355,75.577,203.639,76.73,219.781z" clip-rule="evenodd"/><path fill="gray" fill-rule="evenodd" d="M90.566,168.883c-4.166,1.945-10.098-2.704-13.342,0 c-1.596,1.329-0.494,8.927-0.494,12.353c0,13.115,0,28.959,0,38.545c-1.153-16.143-0.165-34.426-0.494-51.392 c4.776,0,9.554,0,14.33,0C90.566,168.554,90.566,168.718,90.566,168.883z" clip-rule="evenodd"/><path fill="gray" fill-rule="evenodd" d="M96.497,174.813c0.822,11.861,0.822,27.177,0,39.039 C96.497,200.838,96.497,187.826,96.497,174.813z" clip-rule="evenodd"/><path fill="gray" fill-rule="evenodd" d="M73.271,227.688c5.93,0,11.859,0,17.789,0 C86.28,228.512,78.051,228.512,73.271,227.688z" clip-rule="evenodd"/><path fill="gray" fill-rule="evenodd" d="M17.43,165.424c0,20.755,0,41.509,0,62.263 c2.471,0,4.942,0,7.413,0c0-16.143,0-32.285,0-48.428c1.153,15.32,0.166,32.779,0.494,48.922 c-2.718-0.246-6.475,0.545-8.401-0.494C17.266,207.098,16.278,185.191,17.43,165.424z" clip-rule="evenodd"/><path fill="gray" fill-rule="evenodd" d="M53.01,185.191c0,14.164,0,28.33,0,42.496 c2.471,0,4.942,0,7.413,0c0-21.084,0-42.168,0-63.251c1.152,20.261,0.164,42.662,0.494,63.746 c-2.719-0.246-6.476,0.545-8.401-0.494C52.844,213.686,51.858,198.369,53.01,185.191z" clip-rule="evenodd"/><path fill="#FFF" fill-rule="evenodd" d="M90.566,168.883c3.311,0.644,5.287,2.62,5.931,5.93 c0,13.013,0,26.025,0,39.039c0,0.494,0,0.988,0,1.482c-2.154,5.916-11.845,4.299-19.767,4.447c0-9.586,0-25.43,0-38.545 c0-3.426-1.102-11.024,0.494-12.353C80.468,166.179,86.4,170.829,90.566,168.883z" clip-rule="evenodd"/></g></g></g></switch></svg>